<svg width="98" height="71" viewBox="0 0 98 71" fill="none" xmlns="http://www.w3.org/2000/svg">
  <path d="M41.853 71C43.4539 71 44.8261 70.0883 44.9405 68.2648V68.4928L45.6266 53.4494C45.6266 51.8539 45.1692 50.0305 43.1109 50.0305H22.4131L43.1109 28.3772C44.266 27.1358 44.9179 25.5115 44.9405 23.8186L45.741 3.8748C45.741 2.2793 45.3979 0.341905 43.3396 0.911705L3.65927 10.0289C2.17269 10.2568 1.25787 11.3965 1.25787 12.992V24.7303C1.25787 26.3258 2.17269 27.0096 3.54492 27.0096L20.3547 25.6421L1.48658 48.549L0.34306 49.6886C2.98023e-08 50.1445 0 51.1701 0 51.626V63.3644C0 64.8459 0.80047 65.7576 2.28705 65.9855L41.853 71Z" fill="#FE6334" />
  <path d="M96.0559 67.1252C97.4281 67.0112 97.9999 65.9855 97.9999 64.618L97.5425 52.0819C97.5425 50.6003 96.8564 49.1188 95.0267 49.1188L74.7864 49.2327L93.6545 30.3146C94.1508 29.8916 94.5504 29.3677 94.8265 28.7779C95.1027 28.1882 95.2489 27.5464 95.2554 26.8957L95.4841 12.992C95.5794 12.215 95.4043 11.429 94.988 10.7653C94.5718 10.1015 93.9396 9.6002 93.1971 9.3451L51.8015 0C49.7432 0.114 49.1714 2.2793 49.1714 3.9888L48.4853 22.2231C48.4853 23.9326 48.8284 25.6421 50.8867 25.6421L69.9836 27.3515L50.5437 48.8908C50.3409 49.194 50.0931 49.4523 49.8503 49.7056C49.5453 50.0236 49.248 50.3336 49.0571 50.7143C48.5997 51.3981 48.4853 52.5377 48.4853 53.2215L48.0279 68.3788C47.9136 70.2022 49.4001 70.7721 51.1154 70.7721L96.0559 67.1252Z" fill="#FEE832" />
</svg>